<?xml version="1.0" encoding="utf-8"?>
<!-- Generator: Adobe Illustrator 22.1.0, SVG Export Plug-In . SVG Version: 6.00 Build 0)  -->
<svg version="1.1" id="Layer_1" xmlns="http://www.w3.org/2000/svg" xmlns:xlink="http://www.w3.org/1999/xlink" x="0px" y="0px"
	 viewBox="0 0 98.1 123.4" style="enable-background:new 0 0 98.1 123.4;" xml:space="preserve">
<style type="text/css">
	.st0{opacity:0.65;fill:#FF9900;}
	.st1{fill:#2F2F2F;}
	.st2{fill:#FFC20E;}
	.st3{fill:none;}
	.st4{fill:#ACADAC;}
	.st5{opacity:0.2;enable-background:new    ;}
</style>
<title>shield-yellow</title>
<g>
	<g id="Layer_2_1_">
		<g id="artwork">
			<g id="shiled_on_yellow">
				<path class="st0" d="M97.3,21.3c-0.6-0.6-1.4-0.9-2.3-0.8l-5.4,0.2c-15,0.8-29.6-4.8-40.2-15.4L49,4.9l-0.3,0.4
					C38.1,15.9,23.5,21.5,8.5,20.7l-5.4-0.2c-0.8,0-1.6,0.3-2.3,0.8c-0.5,0.5-0.8,1.2-0.8,2v1.9c0,37.8,17.8,73.5,48.7,98l0.3,0.2
					l0.4-0.2c31-24.5,48.7-60.3,48.7-98v-1.9C98.1,22.5,97.8,21.8,97.3,21.3z"/>
				<path class="st1" d="M49.2,113.6L49.2,113.6c29.8-23.7,47-58.2,47-94.7v-1.8c-0.1-1.3-1.1-2.3-2.4-2.2h-0.1l-5.2,0.2
					c-14.7,0.8-29-4.7-39.3-15.1l0,0C38.8,10.4,24.5,15.9,9.8,15.1l-5.2-0.2c-1.3-0.1-2.4,0.9-2.5,2.1v0.1V19
					C2.1,55.4,19.3,90,49.2,113.6L49.2,113.6z"/>
				<path class="st1" d="M12.7,46.1c-2-7.9-3.2-16.1-3.5-24.2c0.6,0,1.3,0,1.9,0C24.8,22,38.2,17.5,49.2,9.2
					c11,8.3,24.3,12.7,38.1,12.7c0.6,0,1.3,0,1.9,0c-1.1,31.6-15.5,61.4-40,83.2C41,97.8,33.8,89.5,27.8,80.4
					c-0.8-1.3-1.6-2.6-2.4-3.8c-1.1-1.8-2.1-3.6-3-5.4c-2.5-4.6-4.6-9.4-6.4-14.3"/>
				<path class="st2" d="M49.2,105.8c-0.2,0-0.4-0.1-0.5-0.2C40.5,98.3,33.3,90,27.2,80.8c-0.8-1.3-1.6-2.6-2.4-3.9
					c-1-1.8-2.1-3.6-3-5.4c-2.5-4.6-4.6-9.5-6.4-14.4c-0.2-0.4,0-0.8,0.4-1l0,0c0.4-0.2,0.8,0,1,0.4c0,0,0,0,0,0.1
					c1.8,4.9,3.9,9.6,6.3,14.2c1,1.8,2,3.6,3,5.3c0.8,1.3,1.6,2.6,2.4,3.8c5.8,8.9,12.8,17,20.7,24.1c24-21.6,37.9-50.4,39.2-81.4
					h-1.2c-13.7,0-27-4.3-38.1-12.5C37.8,18.5,24,22.9,9.9,22.6c0.3,7.9,1.5,15.7,3.5,23.3c0.1,0.4-0.2,0.8-0.6,0.9
					c-0.4,0.1-0.7-0.1-0.8-0.5c-2.1-8-3.2-16.2-3.5-24.4c0-0.2,0.1-0.4,0.2-0.5c0.1-0.2,0.3-0.2,0.6-0.2c14.2,0.5,28.2-4,39.5-12.5
					c0.3-0.2,0.6-0.2,0.9,0c10.8,8.2,24,12.6,37.6,12.5l0,0h1.9c0.2,0,0.4,0.1,0.6,0.2c0.1,0.1,0.2,0.3,0.2,0.5
					c-1.1,31.9-15.4,61.6-40.3,83.7C49.5,105.7,49.3,105.8,49.2,105.8z"/>
				<line class="st3" x1="49.2" y1="9.9" x2="49.2" y2="23.6"/>
				<path class="st4" d="M49.2,24.2c-0.3,0-0.6-0.3-0.6-0.6V9.9c0-0.3,0.2-0.7,0.5-0.7s0.7,0.2,0.7,0.5c0,0.1,0,0.1,0,0.2v13.7
					C49.8,23.9,49.5,24.2,49.2,24.2z"/>
				<line class="st3" x1="49.2" y1="94.1" x2="49.2" y2="103.8"/>
				<path class="st4" d="M49.2,104.4c-0.3,0-0.6-0.3-0.6-0.6l0,0v-9.7c0-0.3,0.4-0.6,0.7-0.5c0.3,0,0.5,0.3,0.5,0.5v9.7
					C49.8,104.1,49.5,104.4,49.2,104.4z"/>
				<path class="st5" d="M48.9,113.6L48.9,113.6C78.8,89.9,96,55.4,96,18.9v-1.8c-0.1-1.3-1.1-2.3-2.4-2.2h-0.1l-5.2,0.2
					C73.6,15.9,59.3,10.4,49,0l0,0"/>
				<circle class="st1" cx="49" cy="55.7" r="20.6"/>
				<path class="st2" d="M49,77.1c-11.8,0-21.4-9.6-21.4-21.4S37.2,34.3,49,34.3s21.4,9.6,21.4,21.4S60.8,77.1,49,77.1z M49,35.8
					c-11,0-19.9,8.9-19.9,19.9S38,75.6,49,75.6s19.9-8.9,19.9-19.9S60,35.8,49,35.8z"/>
				<ellipse class="st1" cx="49" cy="55.7" rx="10.7" ry="20.6"/>
				<path class="st2" d="M49,77.1c-6.4,0-11.5-9.4-11.5-21.4S42.6,34.3,49,34.3s11.5,9.4,11.5,21.4S55.5,77.1,49,77.1z M49,35.8
					c-5.5,0-10,8.9-10,19.9s4.5,19.9,10,19.9s10-8.9,10-19.9S54.5,35.8,49,35.8z"/>
				<line class="st3" x1="28.4" y1="55.7" x2="69.7" y2="55.7"/>
				<path class="st2" d="M69.7,56.5H28.4c-0.4,0-0.8-0.3-0.8-0.8S28,55,28.4,55h41.3c0.4,0,0.8,0.3,0.8,0.8S70.1,56.5,69.7,56.5z"/>
				<line class="st3" x1="49" y1="35.1" x2="49" y2="75.7"/>
				<path class="st2" d="M49,76.5c-0.4,0-0.8-0.3-0.8-0.8V35.1c0-0.4,0.3-0.8,0.8-0.8s0.8,0.3,0.8,0.8v40.7
					C49.7,76.1,49.4,76.5,49,76.5z"/>
				<path class="st1" d="M31.8,44.4c3.7,2.2,10,3.6,17.2,3.6s13.4-1.4,17.1-3.5"/>
				<path class="st2" d="M49,48.8c-7.1,0-13.7-1.4-17.7-3.7l0.8-1.3c3.7,2.2,10,3.5,16.9,3.5s13-1.3,16.8-3.4l0.7,1.3
					C62.6,47.4,56,48.8,49,48.8z"/>
				<path class="st1" d="M66.3,67.3c-3.7-2.2-10-3.6-17.3-3.6s-13.4,1.4-17.1,3.5"/>
				<path class="st2" d="M66,67.9c-3.7-2.2-10-3.5-16.9-3.5s-13,1.3-16.8,3.4l-0.7-1.3c4-2.2,10.5-3.6,17.5-3.6s13.7,1.4,17.7,3.7
					L66,67.9z"/>
				<path class="st2" d="M49,105.7c-0.2,0-0.3-0.1-0.4-0.2c-8.2-7.3-15.4-15.6-21.4-24.8c-0.8-1.3-1.6-2.6-2.4-3.9
					c-1.1-1.8-2.1-3.6-3-5.4c-2.5-4.6-4.6-9.5-6.5-14.4c-0.1-0.3,0-0.7,0.3-0.8s0.7,0,0.8,0.3v0.1c1.8,4.9,3.9,9.6,6.3,14.2
					c1,1.8,2,3.6,3,5.3c0.8,1.3,1.6,2.6,2.4,3.8C34,88.9,41,97.1,49,104.2c24.1-21.6,38.1-50.6,39.4-81.7h-1.3
					C73.4,22.5,60,18.2,49,10C37.6,18.4,23.8,22.8,9.7,22.5c0.3,7.9,1.5,15.8,3.5,23.5c0.1,0.3-0.1,0.7-0.4,0.8l0,0
					c-0.3,0.1-0.7-0.1-0.8-0.5c-2.1-8-3.2-16.1-3.5-24.4c0-0.2,0.1-0.3,0.2-0.5c0.1-0.1,0.3-0.2,0.4-0.2
					c14.3,0.5,28.3-3.9,39.7-12.5c0.2-0.2,0.5-0.2,0.8,0c10.9,8.2,24.1,12.6,37.7,12.6l0,0c0.7,0,1.3,0,1.9,0c0.2,0,0.3,0.1,0.5,0.2
					c0.1,0.1,0.2,0.3,0.2,0.5c-1.1,31.9-15.4,61.6-40.2,83.6C49.3,105.6,49.2,105.7,49,105.7z"/>
				<path class="st2" d="M49,24.3c-0.4,0-0.8-0.3-0.8-0.8V9.9c0-0.4,0.3-0.8,0.8-0.8s0.8,0.3,0.8,0.8v13.7
					C49.7,24,49.4,24.3,49,24.3z"/>
				<path class="st2" d="M49,104.5c-0.4,0-0.8-0.3-0.8-0.8V94c0-0.4,0.3-0.8,0.8-0.8s0.8,0.3,0.8,0.8v9.7
					C49.7,104.2,49.4,104.5,49,104.5z"/>
			</g>
		</g>
	</g>
</g>
</svg>
